HIERARCHY
ROOT hip
{
  OFFSET 0.00112043 5.09927 -9.65472
  CHANNELS 6 Xposition Yposition Zposition Zrotation Xrotation Yrotation
  JOINT abdomen
  {
    OFFSET 0 -1.186 -1.5018
    CHANNELS 3 Zrotation Xrotation Yrotation
    JOINT abdomen2
    {
      OFFSET 0 9.964 0.2134
      CHANNELS 3 Zrotation Xrotation Yrotation
      JOINT chest
      {
        OFFSET 0 13.134 -3.2573
        CHANNELS 3 Zrotation Xrotation Yrotation
        JOINT neck
        {
          OFFSET 0 20.686 -1.6905
          CHANNELS 3 Zrotation Xrotation Yrotation
          JOINT head
          {
            OFFSET 0 7.238 -0.1237
            CHANNELS 3 Zrotation Xrotation Yrotation
            End Site
            {
              OFFSET 0 0 0
            }
          }
        }
        JOINT lCollar
        {
          OFFSET 1.7069 20.075 5.0056
          CHANNELS 3 Zrotation Xrotation Yrotation
          JOINT lShldr
          {
            OFFSET 13.6458 -0.047 -4.849
            CHANNELS 3 Zrotation Xrotation Yrotation
            JOINT lForeArm
            {
              OFFSET 28.3255 -0.9759 2.2888
              CHANNELS 3 Zrotation Xrotation Yrotation
              JOINT lHand
              {
                OFFSET 22.1583 -0.53 10.8316
                CHANNELS 3 Zrotation Xrotation Yrotation
                JOINT lThumb1
                {
                  OFFSET 0.786 0.112 2.5817
                  CHANNELS 3 Zrotation Xrotation Yrotation
                  JOINT lThumb2
                  {
                    OFFSET 0.3601 -0.878 4.2331
                    CHANNELS 3 Zrotation Xrotation Yrotation
                    JOINT lThumb2_End
                    {
                      OFFSET 1.8127 -1.216 2.2227
                      CHANNELS 3 Zrotation Xrotation Yrotation
                      End Site
                      {
                        OFFSET 0.0181 -0.0122 0.0222
                      }
                    }
                  }
                }
                JOINT lCarpal1
                {
                  OFFSET 0.9571 1.114 1.7695
                  CHANNELS 3 Zrotation Xrotation Yrotation
                  JOINT lIndex1
                  {
                    OFFSET 4.1246 0.487 4.1451
                    CHANNELS 3 Zrotation Xrotation Yrotation
                    JOINT lIndex2
                    {
                      OFFSET 3.4052 -1.454 2.7682
                      CHANNELS 3 Zrotation Xrotation Yrotation
                      JOINT lIndex2_End
                      {
                        OFFSET 1.4531 -1.795 1.2713
                        CHANNELS 3 Zrotation Xrotation Yrotation
                        End Site
                        {
                          OFFSET 0.0145 -0.0179 0.0127
                        }
                      }
                    }
                  }
                  JOINT lMid1
                  {
                    OFFSET 5.6954 0.21 2.1184
                    CHANNELS 3 Zrotation Xrotation Yrotation
                    JOINT lMid2
                    {
                      OFFSET 3.9766 -1.54 2.3863
                      CHANNELS 3 Zrotation Xrotation Yrotation
                      JOINT lMid2_End
                      {
                        OFFSET 1.4042 -1.926 1.125
                        CHANNELS 3 Zrotation Xrotation Yrotation
                        End Site
                        {
                          OFFSET 0.014 -0.0193 0.0113
                        }
                      }
                    }
                  }
                }
                JOINT lCarpal2
                {
                  OFFSET 2.0956 0.66 -0.3894
                  CHANNELS 3 Zrotation Xrotation Yrotation
                  JOINT lRing1
                  {
                    OFFSET 5.0395 -0.09 2.4971
                    CHANNELS 3 Zrotation Xrotation Yrotation
                    JOINT lRing2
                    {
                      OFFSET 3.7921 -1.552 1.4806
                      CHANNELS 3 Zrotation Xrotation Yrotation
                      JOINT lRing2_End
                      {
                        OFFSET 1.4655 -1.808 0.9609
                        CHANNELS 3 Zrotation Xrotation Yrotation
                        End Site
                        {
                          OFFSET 0.0147 -0.0181 0.0096
                        }
                      }
                    }
                  }
                  JOINT lPinky1
                  {
                    OFFSET 4.9141 -1.269 0.3591
                    CHANNELS 3 Zrotation Xrotation Yrotation
                    JOINT lPinky2
                    {
                      OFFSET 3.1477 -1.685 0.8462
                      CHANNELS 3 Zrotation Xrotation Yrotation
                      JOINT lPinky2_End
                      {
                        OFFSET 0.8055 -1.585 0.7955
                        CHANNELS 3 Zrotation Xrotation Yrotation
                        End Site
                        {
                          OFFSET 0.0081 -0.0158 0.008
                        }
                      }
                    }
                  }
                }
              }
            }
          }
        }
        JOINT rCollar
        {
          OFFSET -1.7069 20.075 5.0056
          CHANNELS 3 Zrotation Xrotation Yrotation
          JOINT rShldr
          {
            OFFSET -13.6458 -0.047 -4.849
            CHANNELS 3 Zrotation Xrotation Yrotation
            JOINT rForeArm
            {
              OFFSET -28.3255 -0.9759 2.2888
              CHANNELS 3 Zrotation Xrotation Yrotation
              JOINT rHand
              {
                OFFSET -22.1583 -0.53 10.8316
                CHANNELS 3 Zrotation Xrotation Yrotation
                JOINT rThumb1
                {
                  OFFSET -0.786 0.112 2.5817
                  CHANNELS 3 Zrotation Xrotation Yrotation
                  JOINT rThumb2
                  {
                    OFFSET -0.3601 -0.878 4.2331
                    CHANNELS 3 Zrotation Xrotation Yrotation
                    JOINT rThumb2_End
                    {
                      OFFSET -1.8127 -1.216 2.2227
                      CHANNELS 3 Zrotation Xrotation Yrotation
                      End Site
                      {
                        OFFSET -0.0181 -0.0122 0.0222
                      }
                    }
                  }
                }
                JOINT rCarpal1
                {
                  OFFSET -0.9571 1.114 1.7695
                  CHANNELS 3 Zrotation Xrotation Yrotation
                  JOINT rIndex1
                  {
                    OFFSET -4.1246 0.487 4.1451
                    CHANNELS 3 Zrotation Xrotation Yrotation
                    JOINT rIndex2
                    {
                      OFFSET -3.4052 -1.454 2.7682
                      CHANNELS 3 Zrotation Xrotation Yrotation
                      JOINT rIndex2_End
                      {
                        OFFSET -1.4531 -1.795 1.2713
                        CHANNELS 3 Zrotation Xrotation Yrotation
                        End Site
                        {
                          OFFSET -0.0145 -0.018 0.0127
                        }
                      }
                    }
                  }
                  JOINT rMid1
                  {
                    OFFSET -5.6954 0.21 2.1184
                    CHANNELS 3 Zrotation Xrotation Yrotation
                    JOINT rMid2
                    {
                      OFFSET -3.9766 -1.54 2.3863
                      CHANNELS 3 Zrotation Xrotation Yrotation
                      JOINT rMid2_End
                      {
                        OFFSET -1.4042 -1.926 1.125
                        CHANNELS 3 Zrotation Xrotation Yrotation
                        End Site
                        {
                          OFFSET -0.014 -0.0193 0.0113
                        }
                      }
                    }
                  }
                }
                JOINT rCarpal2
                {
                  OFFSET -2.0956 0.66 -0.3894
                  CHANNELS 3 Zrotation Xrotation Yrotation
                  JOINT rRing1
                  {
                    OFFSET -5.0395 -0.09 2.4971
                    CHANNELS 3 Zrotation Xrotation Yrotation
                    JOINT rRing2
                    {
                      OFFSET -3.7921 -1.552 1.4806
                      CHANNELS 3 Zrotation Xrotation Yrotation
                      JOINT rRing2_End
                      {
                        OFFSET -1.4655 -1.808 0.9609
                        CHANNELS 3 Zrotation Xrotation Yrotation
                        End Site
                        {
                          OFFSET -0.0147 -0.0181 0.0096
                        }
                      }
                    }
                  }
                  JOINT rPinky1
                  {
                    OFFSET -4.9141 -1.269 0.3592
                    CHANNELS 3 Zrotation Xrotation Yrotation
                    JOINT rPinky2
                    {
                      OFFSET -3.1477 -1.685 0.8462
                      CHANNELS 3 Zrotation Xrotation Yrotation
                      JOINT rPinky2_End
                      {
                        OFFSET -0.8055 -1.585 0.7955
                        CHANNELS 3 Zrotation Xrotation Yrotation
                        End Site
                        {
                          OFFSET -0.0081 -0.0158 0.008
                        }
                      }
                    }
                  }
                }
              }
            }
          }
        }
      }
    }
  }
  JOINT lThigh
  {
    OFFSET 8.367 -8.2066 0.5982
    CHANNELS 3 Zrotation Xrotation Yrotation
    JOINT lShin
    {
      OFFSET 2.1923 -43.463 -0.4932
      CHANNELS 3 Zrotation Xrotation Yrotation
      JOINT lFoot
      {
        OFFSET 0.7333 -45.8593 -2.6451
        CHANNELS 3 Zrotation Xrotation Yrotation
        End Site
        {
          OFFSET 2.6618 -4.2699 12.3931
        }
      }
    }
  }
  JOINT rThigh
  {
    OFFSET -8.367 -8.2066 0.5982
    CHANNELS 3 Zrotation Xrotation Yrotation
    JOINT rShin
    {
      OFFSET -2.1923 -43.463 -0.4931
      CHANNELS 3 Zrotation Xrotation Yrotation
      JOINT rFoot
      {
        OFFSET -0.7333 -45.8593 -2.6451
        CHANNELS 3 Zrotation Xrotation Yrotation
        End Site
        {
          OFFSET -2.6618 -4.2699 12.3931
        }
      }
    }
  }
}
MOTION
Frames:	5
Frame Time:	0.0333333
0 91.7903 2.51682 0 0 -0 0 0 -0 0 0 -0 0 0 -0 0 0 -0 0 0 -0 0 0 -0 1.66051 0.0835086 5.75766 -0.0175111 0.895433 15.7816 7.95139e-016 -1.98785e-016 -0 5.46658e-016 -3.97569e-016 -0 5.96354e-016 0 -0 3.97569e-016 1.98785e-016 9.54166e-015 1.49089e-016 -3.97569e-016 -0 6.4605e-016 0 3.18055e-015 5.96354e-016 0 3.18055e-015 8.94531e-016 -1.98785e-016 6.36111e-015 6.4605e-016 0 3.18055e-015 5.96354e-016 0 3.18055e-015 8.94531e-016 -1.98785e-016 6.36111e-015 1.49089e-016 -3.97569e-016 -0 6.4605e-016 0 3.18055e-015 5.96354e-016 0 3.18055e-015 8.94531e-016 -1.98785e-016 6.36111e-015 6.4605e-016 0 3.18055e-015 5.96354e-016 0 3.18055e-015 8.94531e-016 -1.98785e-016 6.36111e-015 0 0 -0 -1.4496 0.0636048 -5.0245 -1.74811 1.20616 -16.8394 -1.19271e-015 1.98785e-016 -3.18055e-015 -3.97569e-016 1.98785e-016 -3.18055e-015 -2.98177e-016 1.98785e-016 -3.18055e-015 -2.98177e-016 3.97569e-016 -0 4.96962e-016 0 -6.36111e-015 -9.93923e-017 3.97569e-016 -0 -8.94531e-016 5.96354e-016 -0 -3.97569e-016 3.97569e-016 -0 -9.93923e-017 3.97569e-016 -0 -8.94531e-016 5.96354e-016 -0 -3.97569e-016 3.97569e-016 -0 4.96962e-016 0 -6.36111e-015 -9.93923e-017 3.97569e-016 -0 -8.94531e-016 5.96354e-016 -0 -3.97569e-016 3.97569e-016 -0 -9.93923e-017 3.97569e-016 -0 -8.94531e-016 5.96354e-016 -0 -3.97569e-016 3.97569e-016 -0 -4.66111 -0.998717 0.12318 0.00986924 1.54847 0.176523 4.65186 -0.572283 -0.254274 4.66111 -0.998765 -0.123176 -0.00986867 1.54869 -0.176537 -4.65186 -0.572453 0.25427 
1.0611 39.4186 6.95335 -5.26717e-015 14.0006 180 -0.614141 18.3093 0.0480356 -1.35936 36.6168 0.345217 -1.35936 36.6168 0.345217 5.91049e-006 -0.295418 -2.59583e-006 0.326986 -0.564775 0.00161099 -11.2387 -19.0341 -18.2064 -23.5173 21.2387 -68.5302 10.745 -12.7753 18.9452 44.6745 -8.26296 -6.30262 3.94439e-006 -9.71263e-008 3.32037e-006 -0 0 3.18055e-015 3.63235e-006 -1.11726e-007 -1.76044e-007 0 0 -3.18055e-015 3.94439e-006 -9.71263e-008 3.32037e-006 0 0 -3.18055e-015 3.63235e-006 -1.11726e-007 -1.76044e-007 3.94439e-006 -9.71263e-008 3.32037e-006 0 0 -3.18055e-015 3.63235e-006 -1.11726e-007 -1.76044e-007 0 0 -3.18055e-015 3.94439e-006 -9.71263e-008 3.32037e-006 0 0 -3.18055e-015 3.63235e-006 -1.11726e-007 -1.76044e-007 3.94439e-006 -9.71263e-008 3.32037e-006 0 0 -3.18055e-015 3.63235e-006 -1.11726e-007 -1.76044e-007 9.7037 -19.1252 15.8801 23.7311 21.9205 70.3135 -12.432 -12.2839 -19.89 -39.2562 -8.15218 5.93322 -6.36111e-015 9.54166e-015 3.18055e-015 9.54166e-015 9.54166e-015 3.18055e-015 3.18055e-015 9.54166e-015 -9.54166e-015 -6.36111e-015 3.18055e-015 3.18055e-015 3.18055e-015 6.36111e-015 1.27222e-014 3.18055e-015 9.54166e-015 -0 3.18055e-015 6.36111e-015 -6.36111e-015 3.18055e-015 6.36111e-015 1.27222e-014 3.18055e-015 9.54166e-015 -0 3.18055e-015 6.36111e-015 -6.36111e-015 -6.36111e-015 3.18055e-015 3.18055e-015 3.18055e-015 6.36111e-015 1.27222e-014 3.18055e-015 9.54166e-015 -0 3.18055e-015 6.36111e-015 -6.36111e-015 3.18055e-015 6.36111e-015 1.27222e-014 3.18055e-015 9.54166e-015 -0 3.18055e-015 6.36111e-015 -6.36111e-015 85.7388 -49.8594 99.6915 158.32 76.4444 -156.269 2.92355 -9.83925 1.02242 -85.7209 -49.7582 -99.7536 -158.235 76.4334 156.189 -3.00358 -9.85174 -0.975477 
1.06104 38.7401 6.91684 -5.36782e-015 13.2242 180 -0.609032 17.8132 0.036806 -1.33623 35.6249 0.309119 -1.33623 35.6249 0.309118 7.30083e-006 -0.294854 -1.01807e-006 0.626756 -1.09717 0.140386 -11.1752 -17.9915 -17.9711 -23.5173 21.2387 -68.5302 10.745 -12.7753 18.9453 44.2792 -7.94312 -6.0944 6.36111e-015 6.36111e-015 -9.54166e-015 3.18055e-015 9.54166e-015 -3.18055e-015 -3.40929e-007 7.37731e-007 2.49066e-007 6.36111e-015 3.18055e-015 -9.54166e-015 3.18055e-015 6.36111e-015 -0 9.54166e-015 6.36111e-015 -3.18055e-015 -3.40929e-007 7.37731e-007 2.49066e-007 3.18055e-015 6.36111e-015 -0 9.54166e-015 6.36111e-015 -3.18055e-015 -3.40929e-007 7.37731e-007 2.49066e-007 6.36111e-015 3.18055e-015 -9.54166e-015 3.18055e-015 6.36111e-015 -0 9.54166e-015 6.36111e-015 -3.18055e-015 -3.40929e-007 7.37731e-007 2.49066e-007 3.18055e-015 6.36111e-015 -0 9.54166e-015 6.36111e-015 -3.18055e-015 -3.40929e-007 7.37731e-007 2.49066e-007 9.74955 -18.0756 15.7926 23.7311 21.9205 70.3135 -12.432 -12.2839 -19.89 -38.8452 -7.7637 5.82462 3.18055e-015 -3.18055e-015 6.36111e-015 6.86886e-007 1.47174e-006 -4.72769e-007 6.36111e-015 -9.54166e-015 -0 3.18055e-015 0 6.36111e-015 -3.18055e-015 -3.18055e-015 3.18055e-015 6.86886e-007 1.47174e-006 -4.72769e-007 3.18055e-015 -3.18055e-015 3.18055e-015 -3.18055e-015 -3.18055e-015 3.18055e-015 6.86886e-007 1.47174e-006 -4.72769e-007 3.18055e-015 -3.18055e-015 3.18055e-015 3.18055e-015 0 6.36111e-015 -3.18055e-015 -3.18055e-015 3.18055e-015 6.86886e-007 1.47174e-006 -4.72769e-007 3.18055e-015 -3.18055e-015 3.18055e-015 -3.18055e-015 -3.18055e-015 3.18055e-015 6.86886e-007 1.47174e-006 -4.72769e-007 3.18055e-015 -3.18055e-015 3.18055e-015 88.1437 -49.8931 102.332 159.105 75.8371 -156.971 3.16382 -9.51459 1.17588 -88.1214 -49.7966 -102.385 -159.028 75.827 156.897 -3.23948 -9.52637 -1.13136 
1.06099 38.0598 6.88037 -5.46789e-015 12.4475 180 -0.603615 17.3158 0.0255121 -1.31318 34.6302 0.273448 -1.31318 34.6302 0.273448 -1.75915e-005 -0.293675 -3.67852e-007 0.928662 -1.6302 0.282347 -11.1165 -16.9472 -17.738 -23.5173 21.2387 -68.5302 10.745 -12.7752 18.9453 43.8829 -7.62459 -5.88403 3.18055e-015 0 -6.36111e-015 3.40986e-007 -7.3782e-007 -2.48891e-007 -3.40986e-007 7.3782e-007 2.48891e-007 3.18055e-015 3.18055e-015 -6.36111e-015 6.36111e-015 6.36111e-015 -3.18055e-015 3.40986e-007 -7.3782e-007 -2.48891e-007 -3.40986e-007 7.3782e-007 2.48891e-007 6.36111e-015 6.36111e-015 -3.18055e-015 3.40986e-007 -7.3782e-007 -2.48891e-007 -3.40986e-007 7.3782e-007 2.48891e-007 3.18055e-015 3.18055e-015 -6.36111e-015 6.36111e-015 6.36111e-015 -3.18055e-015 3.40986e-007 -7.3782e-007 -2.48891e-007 -3.40986e-007 7.3782e-007 2.48891e-007 6.36111e-015 6.36111e-015 -3.18055e-015 3.40986e-007 -7.3782e-007 -2.48891e-007 -3.40986e-007 7.3782e-007 2.48891e-007 9.79689 -17.0246 15.7047 23.7311 21.9205 70.3135 -12.432 -12.2839 -19.89 -38.4336 -7.37582 5.71326 -1.57438e-007 -1.75604e-006 -5.5088e-006 -1.56847e-006 4.31775e-006 -1.41021e-006 1.53208e-006 4.69915e-006 4.56183e-006 6.36111e-015 -6.36111e-015 -0 -1.57438e-007 -1.75604e-006 -5.5088e-006 -1.56847e-006 4.31775e-006 -1.41021e-006 1.53208e-006 4.69915e-006 4.56183e-006 -1.57438e-007 -1.75604e-006 -5.5088e-006 -1.56847e-006 4.31775e-006 -1.41021e-006 1.53208e-006 4.69915e-006 4.56183e-006 6.36111e-015 -6.36111e-015 -0 -1.57438e-007 -1.75604e-006 -5.5088e-006 -1.56847e-006 4.31775e-006 -1.41021e-006 1.53208e-006 4.69915e-006 4.56183e-006 -1.57438e-007 -1.75604e-006 -5.5088e-006 -1.56847e-006 4.31775e-006 -1.41021e-006 1.53208e-006 4.69915e-006 4.56183e-006 90.5577 -49.8573 104.982 159.827 75.227 -157.608 3.40289 -9.18868 1.32838 -90.5313 -49.7656 -105.027 -159.757 75.2177 157.541 -3.47423 -9.19968 -1.2863 
1.06094 37.3778 6.8438 -5.56742e-015 11.6702 180 -0.598346 16.8172 0.0143308 -1.29125 33.6332 0.238722 -1.29125 33.6332 0.238722 -4.72905e-007 -0.293027 -2.96337e-006 1.23275 -2.16379 0.427531 -11.0624 -15.9015 -17.507 -23.5173 21.2387 -68.5302 10.745 -12.7752 18.9453 43.4856 -7.30741 -5.67152 3.41052e-007 -7.37912e-007 -2.48706e-007 -2.61059e-006 -2.10212e-006 -5.64804e-007 3.41052e-007 -7.37912e-007 -2.48706e-007 -3.18055e-015 -3.18055e-015 -3.18055e-015 3.41052e-007 -7.37912e-007 -2.48706e-007 -2.61059e-006 -2.10212e-006 -5.64804e-007 3.41052e-007 -7.37912e-007 -2.48706e-007 3.41052e-007 -7.37912e-007 -2.48706e-007 -2.61059e-006 -2.10212e-006 -5.64804e-007 3.41052e-007 -7.37912e-007 -2.48706e-007 -3.18055e-015 -3.18055e-015 -3.18055e-015 3.41052e-007 -7.37912e-007 -2.48706e-007 -2.61059e-006 -2.10212e-006 -5.64804e-007 3.41052e-007 -7.37912e-007 -2.48706e-007 3.41052e-007 -7.37912e-007 -2.48706e-007 -2.61059e-006 -2.10212e-006 -5.64804e-007 3.41052e-007 -7.37912e-007 -2.48706e-007 9.84571 -15.9725 15.6163 23.7311 21.9205 70.3135 -12.432 -12.2839 -19.89 -38.0214 -6.98863 5.59911 -7.06225e-031 6.36111e-015 6.36111e-015 1.37565e-006 2.9427e-006 -9.48376e-007 6.87823e-007 1.47135e-006 -4.74188e-007 -3.53113e-031 3.18055e-015 6.36111e-015 3.18055e-015 3.18055e-015 6.36111e-015 1.37565e-006 2.9427e-006 -9.48376e-007 6.87823e-007 1.47135e-006 -4.74188e-007 3.18055e-015 3.18055e-015 6.36111e-015 1.37565e-006 2.9427e-006 -9.48376e-007 6.87823e-007 1.47135e-006 -4.74188e-007 -3.53113e-031 3.18055e-015 6.36111e-015 3.18055e-015 3.18055e-015 6.36111e-015 1.37565e-006 2.9427e-006 -9.48376e-007 6.87823e-007 1.47135e-006 -4.74188e-007 3.18055e-015 3.18055e-015 6.36111e-015 1.37565e-006 2.9427e-006 -9.48376e-007 6.87823e-007 1.47135e-006 -4.74188e-007 92.9715 -49.7512 107.635 160.493 74.614 -158.188 3.64066 -8.86155 1.47991 -92.9417 -49.6647 -107.672 -160.429 74.6057 158.127 -3.70763 -8.87186 -1.44029 
